<svg xmlns="http://www.w3.org/2000/svg" viewBox="0 0 317.49 54.14"><defs><style>.cls-1{fill:#6750fe;}.cls-2{fill:#fff;}</style></defs><g id="Layer_2" data-name="Layer 2"><g id="Layer_1-2" data-name="Layer 1"><rect class="cls-1" x="7.31" y="5.22" width="4.1" height="48.92"/><path class="cls-2" d="M4.1,54.14H0v-50A4.09,4.09,0,0,1,2.63.41a5.13,5.13,0,0,1,5.5.94l23,22.36-2.87,2.94L5.27,4.29a.86.86,0,0,0-.63-.18,1.09,1.09,0,0,0-.54.15Z"/><path class="cls-2" d="M59.1,54.1H28.32c-3.92,0-7.11-2.73-7.11-6.08V38.64h4.1V48c0,.94,1.24,2,3,2H55V33.54a.83.83,0,0,0-.26,0H32.28a6.29,6.29,0,0,1-6-3.65,4.85,4.85,0,0,1,1.22-5.44L51,1.4a5.08,5.08,0,0,1,5.5-.95A4.06,4.06,0,0,1,59.1,4.18v21H55V4.3a1.08,1.08,0,0,0-.54-.16.87.87,0,0,0-.63.19l-23.45,23c-.43.42-.38.73-.29,1a2.28,2.28,0,0,0,2.19,1.1H54.74a4.15,4.15,0,0,1,4.36,3.89Z"/><path class="cls-2" d="M79.34,18.94h8.31l6.76,13.33,6.77-13.33h8.3V53.37h-7.82V33.6L94.41,47.07h-.16L87,33.7V53.37h-7.7Z"/><path class="cls-2" d="M112.36,48.25l4.37-6.34a13.21,13.21,0,0,0,9.2,4.13c2.1,0,3.24-.89,3.24-2.36v-.1c0-1.42-.94-2.21-4.78-3.29-6-1.68-10.7-3.74-10.7-10.82v-.1c0-6.39,4.17-11,11-11a15.9,15.9,0,0,1,11.67,4.57l-3.93,6.73a12.73,12.73,0,0,0-7.94-3.39c-1.91,0-2.84,1-2.84,2.21v.1c0,1.58,1,2.26,4.9,3.35,6.53,1.72,10.58,4.27,10.58,10.72v.09c0,7-4.58,11.22-11.47,11.22A17.8,17.8,0,0,1,112.36,48.25Z"/><path class="cls-2" d="M152.13,18.94h22.81v8.12h-15v5.21h13.61v7.52H159.91v5.46h15.23v8.12h-23Z"/><path class="cls-1" d="M176.88,19.44h8.79l6.45,21.78,6.44-21.78h8.62L195.68,54.1h-7.29Z"/><path class="cls-2" d="M209.94,18.94h22.8v8.12h-15v5.21h13.61v7.52H217.72v5.46H233v8.12h-23Z"/><path class="cls-2" d="M237,18.94h7.33L256,37.14V18.94h7.77V53.37h-6.88L244.73,34.48V53.37H237Z"/><path class="cls-2" d="M275.68,27.3h-8.51V18.94h24.88V27.3h-8.51V53.37h-7.86Z"/><path class="cls-2" d="M292.74,48.25l4.37-6.34a13.2,13.2,0,0,0,9.2,4.13c2.1,0,3.24-.89,3.24-2.36v-.1c0-1.42-.93-2.21-4.78-3.29-6-1.68-10.7-3.74-10.7-10.82v-.1c0-6.39,4.18-11,11-11a15.9,15.9,0,0,1,11.67,4.57l-3.93,6.73a12.71,12.71,0,0,0-7.94-3.39c-1.91,0-2.84,1-2.84,2.21v.1c0,1.58,1,2.26,4.9,3.35,6.52,1.72,10.58,4.27,10.58,10.72v.09c0,7-4.58,11.22-11.47,11.22A17.8,17.8,0,0,1,292.74,48.25Z"/></g></g></svg>